<?xml version="1.0" encoding="utf-8"?>
<!-- Generated by IcoMoon.io -->
<svg version="1.1" xmlns="http://www.w3.org/2000/svg" xmlns:xlink="http://www.w3.org/1999/xlink" viewBox="0 0 256 320">
<symbol id="icon-16" viewBox="0 0 31 32">
<path fill="#fff" style="fill: var(--color1, #fff)" d="M19.636 5.818c0 3.213 2.605 5.818 5.818 5.818s5.818-2.605 5.818-5.818c0-3.213-2.605-5.818-5.818-5.818s-5.818 2.605-5.818 5.818z"></path>
<path fill="#d41443" style="fill: var(--color2, #d41443)" d="M8.885 20.602c0 0.149-0.414 0.271-1.242 0.367-0.828 0.081-1.656 0.122-2.484 0.122s-1.364-0.034-1.609-0.102c-0.231-0.081-0.346-0.21-0.346-0.387v-8.797h-2.077c-0.231 0-0.346-0.495-0.346-1.487s0.115-1.887 0.346-2.688c0.068-0.258 0.787-0.495 2.159-0.713s2.423-0.326 3.156-0.326c0.733 0 1.222 0.027 1.466 0.081s0.428 0.122 0.55 0.204c0.122 0.068 0.217 0.149 0.285 0.244 0.095 0.149 0.143 0.292 0.143 0.428v13.053zM16.809 12.192c0.122-0.109 0.448-0.251 0.977-0.428s1.127-0.265 1.792-0.265c0.679 0 1.249 0.102 1.711 0.305 0.475 0.19 0.842 0.434 1.1 0.733 0.272 0.299 0.482 0.672 0.631 1.12 0.244 0.733 0.367 1.48 0.367 2.24s-0.034 1.337-0.102 1.731c-0.054 0.38-0.204 0.808-0.448 1.283-0.231 0.475-0.55 0.876-0.957 1.201-0.394 0.326-0.964 0.604-1.711 0.835-0.733 0.217-1.595 0.326-2.586 0.326-2.131 0-3.74-0.584-4.826-1.751-1.086-1.181-1.629-3.082-1.629-5.702 0-2.634 0.509-4.527 1.527-5.681 1.018-1.168 2.566-1.751 4.643-1.751 1.425 0 2.661 0.109 3.706 0.326 1.059 0.204 1.588 0.448 1.588 0.733 0 0.353-0.136 0.971-0.407 1.853-0.258 0.882-0.495 1.324-0.713 1.324-0.068 0-0.271-0.034-0.611-0.102-0.923-0.19-1.765-0.285-2.525-0.285s-1.249 0.19-1.466 0.57c-0.217 0.367-0.326 0.91-0.326 1.629 0.054-0.068 0.143-0.149 0.265-0.244zM17.257 14.025c-0.394 0-0.591 0.733-0.591 2.199 0 1.453 0.197 2.179 0.591 2.179 0.421 0 0.631-0.726 0.631-2.179 0-1.466-0.21-2.199-0.631-2.199z"></path>
<path fill="#fff" style="fill: var(--color1, #fff)" d="M11.217 30.615c-0.275 0-0.524-0.062-0.745-0.186-0.217-0.128-0.39-0.305-0.518-0.529-0.124-0.229-0.186-0.495-0.186-0.797s0.062-0.566 0.186-0.791c0.128-0.229 0.301-0.405 0.518-0.529 0.221-0.128 0.469-0.192 0.745-0.192 0.341 0 0.628 0.089 0.861 0.268 0.237 0.178 0.386 0.417 0.448 0.716h-0.5c-0.039-0.178-0.134-0.316-0.285-0.413-0.151-0.101-0.328-0.151-0.529-0.151-0.163 0-0.316 0.041-0.46 0.122s-0.26 0.204-0.349 0.367c-0.089 0.163-0.134 0.365-0.134 0.605s0.045 0.442 0.134 0.605c0.089 0.163 0.206 0.287 0.349 0.372 0.143 0.081 0.297 0.122 0.46 0.122 0.202 0 0.378-0.049 0.529-0.145 0.151-0.101 0.246-0.242 0.285-0.425h0.5c-0.058 0.291-0.206 0.527-0.442 0.71s-0.526 0.273-0.867 0.273zM14.168 30.615c-0.241 0-0.44-0.041-0.599-0.122s-0.277-0.19-0.355-0.326c-0.078-0.136-0.116-0.283-0.116-0.442 0-0.295 0.112-0.522 0.337-0.681s0.531-0.239 0.919-0.239h0.78v-0.035c0-0.252-0.066-0.442-0.198-0.57-0.132-0.132-0.308-0.198-0.529-0.198-0.19 0-0.355 0.049-0.495 0.145-0.136 0.093-0.221 0.231-0.256 0.413h-0.5c0.019-0.209 0.089-0.386 0.209-0.529 0.124-0.143 0.277-0.252 0.46-0.326 0.182-0.078 0.376-0.116 0.582-0.116 0.403 0 0.706 0.109 0.908 0.326 0.206 0.213 0.308 0.498 0.308 0.855v1.775h-0.436l-0.029-0.518c-0.081 0.163-0.202 0.303-0.361 0.419-0.155 0.113-0.365 0.169-0.628 0.169zM14.244 30.202c0.186 0 0.345-0.049 0.477-0.145 0.136-0.097 0.239-0.223 0.308-0.378s0.105-0.318 0.105-0.489v-0.006h-0.739c-0.287 0-0.491 0.050-0.611 0.151-0.116 0.097-0.175 0.219-0.175 0.367 0 0.151 0.054 0.273 0.163 0.367 0.112 0.089 0.27 0.134 0.471 0.134zM16.513 30.545v-2.473h-0.436v-0.413h0.436v-0.5c0-0.279 0.070-0.483 0.209-0.611s0.343-0.192 0.611-0.192h0.291v0.419h-0.215c-0.147 0-0.252 0.031-0.314 0.093-0.062 0.058-0.093 0.159-0.093 0.303v0.489h0.71v0.413h-0.71v2.473h-0.489zM19.477 30.615c-0.275 0-0.52-0.062-0.733-0.186-0.213-0.128-0.382-0.305-0.506-0.529-0.12-0.225-0.18-0.491-0.18-0.797 0-0.303 0.060-0.566 0.18-0.791 0.12-0.229 0.287-0.405 0.5-0.529 0.217-0.128 0.467-0.192 0.751-0.192 0.279 0 0.52 0.064 0.721 0.192 0.206 0.124 0.363 0.289 0.471 0.495s0.163 0.427 0.163 0.663c0 0.043-0.002 0.085-0.006 0.128 0 0.043 0 0.091 0 0.145h-2.298c0.012 0.221 0.062 0.405 0.151 0.553 0.093 0.143 0.207 0.252 0.343 0.326 0.14 0.074 0.287 0.111 0.442 0.111 0.202 0 0.37-0.047 0.506-0.14s0.235-0.219 0.297-0.378h0.483c-0.078 0.268-0.227 0.491-0.448 0.669-0.217 0.175-0.497 0.262-0.838 0.262zM19.477 28.003c-0.233 0-0.44 0.072-0.623 0.215-0.178 0.14-0.281 0.345-0.308 0.617h1.815c-0.012-0.26-0.101-0.463-0.268-0.611s-0.372-0.221-0.617-0.221zM22.598 30.615c-0.345 0-0.632-0.087-0.861-0.262s-0.363-0.411-0.401-0.71h0.5c0.031 0.151 0.111 0.283 0.239 0.396 0.132 0.109 0.308 0.163 0.529 0.163 0.206 0 0.357-0.043 0.454-0.128 0.097-0.089 0.145-0.194 0.145-0.314 0-0.175-0.064-0.291-0.192-0.349-0.124-0.058-0.301-0.111-0.529-0.157-0.155-0.031-0.31-0.076-0.465-0.134s-0.285-0.14-0.39-0.244c-0.105-0.109-0.157-0.25-0.157-0.425 0-0.252 0.093-0.458 0.279-0.617 0.19-0.163 0.446-0.244 0.768-0.244 0.306 0 0.557 0.078 0.751 0.233 0.198 0.151 0.312 0.369 0.343 0.652h-0.483c-0.019-0.147-0.083-0.262-0.192-0.343-0.105-0.085-0.246-0.128-0.425-0.128-0.175 0-0.31 0.037-0.407 0.111-0.093 0.074-0.14 0.171-0.14 0.291 0 0.116 0.060 0.207 0.18 0.273 0.124 0.066 0.291 0.122 0.5 0.169 0.178 0.039 0.347 0.087 0.506 0.145 0.163 0.054 0.295 0.138 0.396 0.25 0.105 0.109 0.157 0.268 0.157 0.477 0.004 0.26-0.095 0.475-0.297 0.646-0.198 0.167-0.467 0.25-0.809 0.25z"></path>
</symbol>
<symbol id="icon-23" viewBox="0 0 38 32">
<path fill="#fff" style="fill: var(--color1, #fff)" d="M26.047 5.954c0 3.288 2.665 5.954 5.953 5.954s5.953-2.665 5.953-5.954c0-3.288-2.665-5.954-5.953-5.954s-5.953 2.665-5.953 5.954z"></path>
<path fill="#d41443" style="fill: var(--color2, #d41443)" d="M7.732 11.44c-0.389 0-0.729-0.458-1.021-1.375-0.278-0.917-0.417-1.799-0.417-2.646 0-0.194 0.215-0.41 0.646-0.646 0.431-0.25 1.084-0.472 1.959-0.667s1.827-0.292 2.855-0.292c3.987 0 5.98 1.396 5.98 4.188 0 0.778-0.167 1.507-0.5 2.188s-0.702 1.229-1.104 1.646c-0.403 0.403-0.875 0.778-1.417 1.125-0.625 0.389-1.222 0.695-1.792 0.917h4.167c0.083 0 0.174 0.042 0.271 0.125 0.097 0.069 0.201 0.292 0.313 0.667 0.111 0.361 0.167 0.82 0.167 1.375 0 0.542-0.035 1-0.104 1.375-0.070 0.361-0.153 0.625-0.25 0.792-0.208 0.375-0.396 0.577-0.563 0.604l-0.104 0.021h-9.127c-0.875 0-1.313-1.368-1.313-4.105 0-0.306 0.903-1.146 2.709-2.521 0.681-0.5 1.306-1.049 1.875-1.646s0.854-1.084 0.854-1.459c0-0.417-0.313-0.625-0.938-0.625s-1.285 0.16-1.98 0.479c-0.681 0.319-1.070 0.479-1.167 0.479zM31.18 9.71c0 1.403-0.556 2.452-1.667 3.146 0.153 0.069 0.347 0.236 0.583 0.5 0.25 0.264 0.458 0.528 0.625 0.792 0.431 0.681 0.646 1.486 0.646 2.417 0 1.528-0.549 2.653-1.646 3.376s-2.605 1.084-4.522 1.084c-0.945 0-1.841-0.076-2.688-0.229-0.834-0.167-1.473-0.347-1.917-0.542-0.445-0.208-0.667-0.396-0.667-0.563 0-0.764 0.083-1.438 0.25-2.021s0.354-0.993 0.563-1.229c0.208-0.25 0.41-0.375 0.604-0.375 0.056 0 0.424 0.125 1.104 0.375s1.348 0.375 2 0.375c0.667 0 1-0.208 1-0.625 0-0.57-0.702-0.875-2.105-0.917-0.556-0.014-0.861-0.028-0.917-0.042-0.292-0.097-0.438-0.708-0.438-1.834s0.146-1.743 0.438-1.854c0.056-0.028 0.361-0.042 0.917-0.042 1.403-0.028 2.105-0.313 2.105-0.854 0-0.417-0.306-0.625-0.917-0.625-0.597 0-1.264 0.146-2 0.438s-1.139 0.438-1.209 0.438c-0.319 0-0.611-0.465-0.875-1.396s-0.396-1.591-0.396-1.98c0-0.361 0.403-0.729 1.209-1.104 0.889-0.403 2.195-0.604 3.917-0.604 4.001 0 6.001 1.299 6.001 3.897z"></path>
<path fill="#fff" style="fill: var(--color1, #fff)" d="M1.275 30.512v-2.53h-0.447v-0.423h0.447v-0.512c0-0.286 0.071-0.494 0.214-0.625s0.351-0.196 0.625-0.196h0.298v0.429h-0.22c-0.151 0-0.258 0.032-0.321 0.095-0.063 0.060-0.095 0.163-0.095 0.31v0.5h0.726v0.423h-0.726v2.53h-0.5zM4.326 30.583c-0.278 0-0.528-0.063-0.75-0.191s-0.399-0.306-0.53-0.536c-0.127-0.234-0.191-0.508-0.191-0.822s0.066-0.585 0.196-0.816c0.131-0.234 0.308-0.415 0.53-0.542 0.226-0.127 0.478-0.191 0.756-0.191s0.528 0.063 0.75 0.191c0.222 0.127 0.397 0.308 0.524 0.542 0.131 0.23 0.196 0.502 0.196 0.816s-0.066 0.587-0.196 0.822c-0.131 0.23-0.31 0.409-0.536 0.536-0.222 0.127-0.472 0.191-0.75 0.191zM4.326 30.154c0.171 0 0.329-0.042 0.476-0.125s0.266-0.208 0.357-0.375c0.091-0.167 0.137-0.373 0.137-0.619s-0.046-0.452-0.137-0.619c-0.087-0.167-0.204-0.292-0.351-0.375s-0.304-0.125-0.47-0.125c-0.171 0-0.329 0.042-0.476 0.125s-0.266 0.208-0.357 0.375c-0.091 0.167-0.137 0.373-0.137 0.619s0.046 0.452 0.137 0.619c0.091 0.167 0.208 0.292 0.351 0.375 0.147 0.083 0.304 0.125 0.47 0.125zM7.849 30.583c-0.278 0-0.528-0.063-0.75-0.191s-0.399-0.306-0.53-0.536c-0.127-0.234-0.191-0.508-0.191-0.822s0.066-0.585 0.196-0.816c0.131-0.234 0.308-0.415 0.53-0.542 0.226-0.127 0.478-0.191 0.756-0.191s0.528 0.063 0.75 0.191c0.222 0.127 0.397 0.308 0.524 0.542 0.131 0.23 0.196 0.502 0.196 0.816s-0.066 0.587-0.196 0.822c-0.131 0.23-0.31 0.409-0.536 0.536-0.222 0.127-0.472 0.191-0.75 0.191zM7.849 30.154c0.171 0 0.329-0.042 0.476-0.125s0.266-0.208 0.357-0.375c0.091-0.167 0.137-0.373 0.137-0.619s-0.046-0.452-0.137-0.619c-0.087-0.167-0.204-0.292-0.351-0.375s-0.304-0.125-0.47-0.125c-0.171 0-0.329 0.042-0.476 0.125s-0.266 0.208-0.357 0.375c-0.091 0.167-0.137 0.373-0.137 0.619s0.046 0.452 0.137 0.619c0.091 0.167 0.208 0.292 0.351 0.375 0.147 0.083 0.304 0.125 0.47 0.125zM11.367 30.583c-0.294 0-0.552-0.067-0.774-0.202-0.218-0.135-0.389-0.319-0.512-0.554-0.119-0.234-0.179-0.5-0.179-0.798s0.061-0.562 0.185-0.792c0.123-0.234 0.294-0.417 0.512-0.548 0.218-0.135 0.476-0.202 0.774-0.202 0.242 0 0.456 0.050 0.643 0.149s0.331 0.238 0.435 0.417v-1.828h0.5v4.287h-0.452l-0.048-0.488c-0.095 0.143-0.232 0.272-0.411 0.387s-0.403 0.173-0.673 0.173zM11.42 30.148c0.198 0 0.373-0.046 0.524-0.137 0.155-0.095 0.274-0.226 0.357-0.393 0.087-0.167 0.131-0.361 0.131-0.583s-0.044-0.417-0.131-0.583c-0.083-0.167-0.202-0.296-0.357-0.387-0.151-0.095-0.325-0.143-0.524-0.143-0.195 0-0.369 0.048-0.524 0.143-0.151 0.091-0.27 0.22-0.357 0.387-0.083 0.167-0.125 0.361-0.125 0.583s0.042 0.417 0.125 0.583c0.087 0.167 0.206 0.298 0.357 0.393 0.155 0.091 0.329 0.137 0.524 0.137zM16.508 30.512c-0.27 0-0.482-0.066-0.637-0.196s-0.232-0.367-0.232-0.708v-1.625h-0.512v-0.423h0.512l0.066-0.708h0.435v0.708h0.869v0.423h-0.869v1.625c0 0.187 0.038 0.314 0.113 0.381 0.075 0.063 0.208 0.095 0.399 0.095h0.31v0.429h-0.452zM17.643 30.512v-2.953h0.452l0.042 0.566c0.091-0.194 0.23-0.349 0.417-0.464s0.417-0.173 0.691-0.173v0.524h-0.137c-0.175 0-0.335 0.032-0.482 0.095-0.147 0.060-0.264 0.163-0.351 0.31s-0.131 0.349-0.131 0.607v1.488h-0.5zM22.39 27.559v2.953h-0.452l-0.030-0.53c-0.095 0.187-0.232 0.333-0.411 0.441s-0.381 0.161-0.607 0.161c-0.349 0-0.629-0.105-0.839-0.316-0.206-0.214-0.31-0.542-0.31-0.982v-1.727h0.5v1.673c0 0.615 0.254 0.923 0.762 0.923 0.254 0 0.464-0.091 0.631-0.274 0.171-0.187 0.256-0.45 0.256-0.792v-1.53h0.5zM24.57 30.583c-0.282 0-0.536-0.063-0.762-0.191-0.222-0.131-0.399-0.312-0.53-0.542-0.127-0.234-0.191-0.506-0.191-0.816s0.064-0.579 0.191-0.81c0.131-0.234 0.308-0.415 0.53-0.542 0.226-0.131 0.48-0.196 0.762-0.196 0.349 0 0.643 0.091 0.881 0.274 0.242 0.183 0.395 0.427 0.458 0.732h-0.512c-0.040-0.183-0.137-0.323-0.292-0.423-0.155-0.103-0.335-0.155-0.542-0.155-0.167 0-0.323 0.042-0.47 0.125s-0.266 0.208-0.357 0.375c-0.091 0.167-0.137 0.373-0.137 0.619s0.046 0.452 0.137 0.619c0.091 0.167 0.21 0.294 0.357 0.381 0.147 0.083 0.304 0.125 0.47 0.125 0.206 0 0.387-0.050 0.542-0.149 0.155-0.103 0.252-0.248 0.292-0.435h0.512c-0.060 0.298-0.21 0.54-0.452 0.726s-0.538 0.28-0.887 0.28zM26.608 30.512v-4.287h0.5v2.578l1.209-1.244h0.613l-1.31 1.334 1.476 1.619h-0.637l-1.351-1.53v1.53h-0.5zM30.565 30.583c-0.353 0-0.647-0.089-0.881-0.268s-0.371-0.421-0.411-0.726h0.512c0.032 0.155 0.113 0.29 0.244 0.405 0.135 0.111 0.316 0.167 0.542 0.167 0.21 0 0.365-0.044 0.464-0.131 0.099-0.091 0.149-0.198 0.149-0.322 0-0.179-0.066-0.298-0.196-0.357-0.127-0.060-0.308-0.113-0.542-0.161-0.159-0.032-0.318-0.077-0.476-0.137s-0.292-0.143-0.399-0.25c-0.107-0.111-0.161-0.256-0.161-0.435 0-0.258 0.095-0.468 0.286-0.631 0.194-0.167 0.456-0.25 0.786-0.25 0.314 0 0.57 0.079 0.768 0.238 0.202 0.155 0.319 0.377 0.351 0.667h-0.494c-0.020-0.151-0.085-0.268-0.196-0.351-0.107-0.087-0.252-0.131-0.435-0.131-0.179 0-0.318 0.038-0.417 0.113-0.095 0.075-0.143 0.175-0.143 0.298 0 0.119 0.062 0.212 0.185 0.28 0.127 0.067 0.298 0.125 0.512 0.173 0.183 0.040 0.355 0.089 0.518 0.149 0.167 0.056 0.302 0.141 0.405 0.256 0.107 0.111 0.161 0.274 0.161 0.488 0.004 0.266-0.097 0.486-0.304 0.661-0.202 0.171-0.478 0.256-0.828 0.256z"></path>
</symbol>
<symbol id="icon-facebook" viewBox="0 0 33 32">
<path  d="M16.471 32c8.837 0 16-7.163 16-16s-7.163-16-16-16c-8.837 0-16 7.163-16 16s7.163 16 16 16z"></path>
<path fill="#fff" style="fill: var(--color1, #fff)" d="M20.916 15.981h-2.61v9.618h-3.955v-9.618h-1.881v-3.38h1.881v-2.188c0-1.564 0.739-4.014 3.99-4.014l2.929 0.012v3.281h-2.125c-0.349 0-0.839 0.175-0.839 0.921v1.989h2.955l-0.346 3.377z"></path>
</symbol>
<symbol id="icon-telegram" viewBox="0 0 33 32">
<path  d="M32.235 16c0 8.837-7.163 16-16 16s-16-7.163-16-16c0-8.837 7.163-16 16-16s16 7.163 16 16z"></path>
<path fill="#fff" style="fill: var(--color1, #fff)" d="M13.102 18.375l-0.318 4.169c0.454 0 0.651-0.182 0.887-0.401l2.13-1.9 4.414 3.017c0.81 0.421 1.38 0.199 1.598-0.695l2.898-12.673c0.257-1.117-0.433-1.554-1.222-1.28l-17.032 6.086c-1.162 0.421-1.145 1.026-0.198 1.3l4.355 1.264 10.115-5.907c0.476-0.294 0.909-0.131 0.553 0.163l-8.182 6.857z"></path>
</symbol>
<symbol id="icon-github" viewBox="0 0 32 32">
<path  d="M32 16c0 8.837-7.163 16-16 16s-16-7.163-16-16c0-8.837 7.163-16 16-16s16 7.163 16 16z"></path>
<path fill="#fff" style="fill: var(--color1, #fff)" d="M16 6.588c-5.169 0-9.412 4.242-9.412 9.412 0 4.411 3.095 8.419 7.206 9.412v-3.114c-0.407 0.089-0.782 0.092-1.197-0.030-0.556-0.164-1.008-0.535-1.344-1.1-0.214-0.361-0.593-0.752-0.988-0.723l-0.097-1.099c0.855-0.073 1.595 0.521 2.034 1.258 0.195 0.328 0.419 0.52 0.708 0.605 0.278 0.082 0.577 0.043 0.926-0.081 0.088-0.698 0.407-0.959 0.649-1.326v-0.001c-2.451-0.366-3.428-1.666-3.816-2.693-0.514-1.363-0.238-3.066 0.671-4.142 0.018-0.021 0.050-0.076 0.037-0.114-0.417-1.258 0.091-2.3 0.11-2.41 0.481 0.142 0.559-0.143 2.088 0.786l0.264 0.159c0.111 0.066 0.076 0.028 0.186 0.020 0.639-0.174 1.312-0.269 1.975-0.278 0.668 0.009 1.337 0.104 2.002 0.285l0.086 0.009c-0.008-0.001 0.023-0.005 0.075-0.036 1.911-1.157 1.842-0.779 2.354-0.946 0.018 0.111 0.519 1.169 0.107 2.411-0.056 0.171 1.657 1.739 0.708 4.256-0.388 1.027-1.365 2.328-3.816 2.693v0.001c0.314 0.479 0.692 0.734 0.69 1.722v3.887c4.111-0.993 7.206-5 7.206-9.412 0-5.169-4.242-9.412-9.412-9.412v0z"></path>
</symbol>
<symbol id="icon-elipse" viewBox="0 0 35 32">
<path  d="M33.053 16c0 8.837-7.163 16-16 16s-16-7.163-16-16c0-8.837 7.163-16 16-16s16 7.163 16 16z"></path>
</symbol>
<symbol id="icon-home" viewBox="0 0 35 32">
<path  d="M32.64 15.401c0.599-0.65 0.541-1.646-0.129-2.225l-14.772-12.75c-0.671-0.578-1.745-0.566-2.402 0.027l-14.822 13.403c-0.656 0.594-0.689 1.589-0.071 2.222l0.372 0.382c0.617 0.633 1.613 0.708 2.224 0.168l1.108-0.979v14.326c0 0.879 0.722 1.591 1.612 1.591h5.778c0.89 0 1.612-0.712 1.612-1.591v-10.023h7.37v10.023c-0.013 0.878 0.624 1.59 1.515 1.59h6.123c0.89 0 1.613-0.711 1.613-1.59v-14.124c0 0 0.306 0.264 0.683 0.592s1.168 0.065 1.767-0.586l0.42-0.455z"></path>
</symbol>
<symbol id="icon-3elipse" viewBox="0 0 256 32">
<path  d="M144 16c0 8.837-7.163 16-16 16s-16-7.163-16-16c0-8.837 7.163-16 16-16s16 7.163 16 16z"></path>
<path  d="M32 16c0 8.837-7.163 16-16 16s-16-7.163-16-16c0-8.837 7.163-16 16-16s16 7.163 16 16z"></path>
<path  d="M256 16c0 8.837-7.163 16-16 16s-16-7.163-16-16c0-8.837 7.163-16 16-16s16 7.163 16 16z"></path>
</symbol>
<symbol id="icon-untitled" viewBox="0 0 43 32">
<path  d="M32.014 0c1.929 0 3.75 0.52 5.464 1.561s3.107 2.537 4.179 4.488c1.029 1.951 1.543 4.249 1.543 6.894s-0.643 5.225-1.929 7.74c-0.429 0.911-1.2 2.081-2.314 3.512-1.157 1.431-2.229 2.667-3.214 3.707l-4.050 4.098-2.893-4.813c2.014-1.257 3.793-2.818 5.336-4.683 1.543-1.821 2.314-3.491 2.314-5.008 0-0.78-0.171-1.409-0.514-1.886-1.5 1.084-3.171 1.626-5.014 1.626-1.329 0-2.593-0.412-3.793-1.236-1.243-0.78-2.229-1.821-2.957-3.122-0.771-1.258-1.157-2.558-1.157-3.902 0-1.518 0.45-2.97 1.35-4.358 0.857-1.388 1.993-2.515 3.407-3.382 1.371-0.824 2.786-1.236 4.243-1.236zM8.936 0c1.929 0 3.75 0.52 5.464 1.561s3.107 2.537 4.179 4.488c1.029 1.951 1.543 4.249 1.543 6.894 0 1.864-0.236 3.534-0.707 5.008-0.471 1.518-1.286 3.1-2.443 4.748-1.114 1.561-2.164 2.862-3.15 3.902-0.986 1.084-2.7 2.884-5.143 5.398l-2.893-4.813c2.014-1.257 3.793-2.818 5.336-4.683 1.543-1.821 2.314-3.491 2.314-5.008 0-0.78-0.171-1.409-0.514-1.886-1.5 1.084-3.171 1.626-5.014 1.626-1.329 0-2.593-0.412-3.793-1.236-1.243-0.78-2.229-1.821-2.957-3.122-0.771-1.258-1.157-2.558-1.157-3.902 0-1.518 0.429-2.97 1.286-4.358s1.993-2.515 3.407-3.382c1.371-0.824 2.786-1.236 4.243-1.236z"></path>
</symbol>
<symbol id="icon-arrow" viewBox="0 0 26 32">
<path fill="none" stroke="#d41443" style="stroke: var(--color2, #d41443)" stroke-linejoin="round" stroke-linecap="round" stroke-miterlimit="4" stroke-width="6.4" d="M3.542 3.2l16.825 12.8-16.825 12.8"></path>
</symbol>
<symbol id="icon-close" viewBox="0 0 32 32">
<path fill="none" stroke="#fff" style="stroke: var(--color1, #fff)" stroke-linejoin="miter" stroke-linecap="butt" stroke-miterlimit="4" stroke-width="2" d="M2.519 2l26.963 28"></path>
<path fill="none" stroke="#fff" style="stroke: var(--color1, #fff)" stroke-linejoin="miter" stroke-linecap="butt" stroke-miterlimit="4" stroke-width="2" d="M2 29.481l28-26.963"></path>
</symbol>
<symbol id="icon-burger" viewBox="0 0 46 32">
<path fill="none" stroke="#d41443" style="stroke: var(--color2, #d41443)" stroke-linejoin="miter" stroke-linecap="butt" stroke-miterlimit="4" stroke-width="2.2857" d="M0 2.286h45.714"></path>
<path fill="none" stroke="#d41443" style="stroke: var(--color2, #d41443)" stroke-linejoin="miter" stroke-linecap="butt" stroke-miterlimit="4" stroke-width="2.2857" d="M0 16h45.714"></path>
<path fill="none" stroke="#d41443" style="stroke: var(--color2, #d41443)" stroke-linejoin="miter" stroke-linecap="butt" stroke-miterlimit="4" stroke-width="2.2857" d="M0 29.714h45.714"></path>
</symbol>
</svg>
